<svg width="69" height="69" xmlns="http://www.w3.org/2000/svg" xmlns:xlink="http://www.w3.org/1999/xlink" xml:space="preserve" overflow="hidden"><g><path d="M15.2375 46.9279 15.2375 46.9279C15.1927 50.7877 18.2853 53.9529 22.145 53.9977 22.6779 54.0039 23.2098 53.9491 23.7302 53.8344 24.3552 55.8247 26.1995 57.1793 28.2857 57.1802L28.2857 57.1802C30.9234 57.1805 33.0621 55.0425 33.0625 52.4048 33.0625 52.4046 33.0625 52.4043 33.0625 52.4041L33.0625 17.0631C33.0648 13.7091 30.4631 10.9291 27.1163 10.7094 26.9725 10.6998 26.8317 10.695 26.6937 10.695 23.3435 10.6992 20.5701 13.2997 20.3507 16.6427 20.2961 16.6578 20.2414 16.6728 20.1868 16.6894 16.9913 17.6418 15.1729 21.0043 16.1253 24.1998 16.1255 24.2005 16.1257 24.2011 16.1259 24.2017 15.9426 24.2923 15.7665 24.3908 15.5875 24.4957 12.1345 26.5749 11.0202 31.0593 13.0985 34.5129 10.0742 37.4487 10.0026 42.2803 12.9384 45.3046 13.5975 45.9835 14.3771 46.534 15.2375 46.9279ZM14.3297 33.7683C12.6649 30.9942 13.5593 27.3959 16.3293 25.7241 16.4687 25.64 16.6168 25.5602 16.7605 25.4883L17.8494 24.9514 17.5037 23.7906C16.7807 21.3559 18.1648 18.7952 20.5979 18.0665 20.6389 18.0536 20.6806 18.0421 20.7223 18.0313L21.7178 17.7646 21.7853 16.7361C21.9589 14.1505 24.1029 12.1395 26.6944 12.1318 26.8027 12.1318 26.9119 12.1354 27.0221 12.1426 29.6111 12.3182 31.6223 14.4682 31.625 17.0631L31.625 52.4041C31.6222 54.2503 30.1233 55.7447 28.2771 55.7419 28.227 55.7419 28.1769 55.7406 28.1268 55.7383 26.7259 55.5707 25.5407 54.624 25.0678 53.2946L24.7085 52.1446 23.4233 52.4263C20.4254 53.0841 17.4619 51.187 16.8041 48.189 16.7178 47.7957 16.6745 47.3939 16.675 46.9912L16.675 46.005 15.8355 45.6212C12.7242 44.198 11.3559 40.522 12.7792 37.4107 13.0991 36.7114 13.5464 36.0777 14.0983 35.5422L14.9191 34.7472Z" fill="#548235"/><path d="M39.2732 56.948C41.7835 57.7451 44.4647 56.3563 45.2618 53.846 45.263 53.8421 45.2642 53.8383 45.2654 53.8344 45.7574 53.9423 46.2596 53.9967 46.7633 53.9968L46.7712 53.9968C50.628 53.987 53.7522 50.8631 53.7625 47.0063L53.7625 46.9272C57.5955 45.177 59.2839 40.6509 57.5338 36.8179 57.139 35.9533 56.5861 35.1702 55.9037 34.5086 56.01 34.3333 56.1085 34.1531 56.1991 33.9681 57.9789 30.3526 56.4917 25.9788 52.877 24.1974 52.8935 24.1428 52.9093 24.0882 52.9237 24.0328 53.7867 20.8121 51.8754 17.5015 48.6546 16.6384 48.6536 16.6382 48.6525 16.6379 48.6515 16.6376 48.4312 13.2948 45.6564 10.6954 42.3063 10.6936L42.3063 10.6936C38.7897 10.6928 35.9383 13.5429 35.9375 17.0595 35.9375 17.0608 35.9375 17.0619 35.9375 17.0631L35.9375 52.4041C35.9417 54.4833 37.2908 56.321 39.2732 56.948ZM37.375 17.0624C37.3731 14.3424 39.5765 12.136 42.2964 12.134 44.8913 12.1321 47.0424 14.1441 47.214 16.7332L47.2815 17.761 48.277 18.027C50.7307 18.6865 52.1877 21.2074 51.5344 23.6627 51.5229 23.7044 51.5114 23.7461 51.4984 23.7878L51.152 24.9514 52.2409 25.4883C55.1408 26.9207 56.3343 30.4301 54.9089 33.3335 54.837 33.4772 54.7565 33.6274 54.6717 33.7647L54.0831 34.7429 54.7882 35.4272C57.1945 37.7815 57.3614 41.5989 55.1698 44.1543 54.6075 44.7725 53.9256 45.2701 53.1652 45.6169L52.3243 46.0007 52.3243 46.989C52.3295 50.0578 49.8459 52.5499 46.777 52.5551 46.373 52.5557 45.97 52.5124 45.5752 52.4256L44.2923 52.1446 43.9329 53.2802C43.6014 54.2008 42.9439 54.9679 42.085 55.4365 40.4063 56.1955 38.4302 55.4499 37.6713 53.7713 37.477 53.3416 37.376 52.8756 37.375 52.4041Z" fill="#548235"/><path d="M55.2525 15.5703C55.441 15.5695 55.6217 15.4946 55.7556 15.3618L59.1387 12.0053C59.4032 11.7383 59.4377 11.3201 59.2207 11.0134 58.9709 10.7049 58.5183 10.6573 58.2098 10.9072 58.1912 10.9223 58.1733 10.9383 58.1562 10.9552L54.7781 14.3082C54.5094 14.5801 54.479 15.0071 54.7062 15.3144 54.842 15.4757 55.0417 15.5692 55.2525 15.5703Z" fill="#548235"/><path d="M59.1984 24.1867C59.2757 24.576 59.6541 24.8289 60.0434 24.7515 60.0921 24.7419 60.1396 24.7272 60.1852 24.7078L65.0469 22.6406C65.3913 22.4912 65.5786 22.1159 65.4911 21.7508 65.3739 21.3715 64.9715 21.1591 64.5922 21.2762 64.5687 21.2835 64.5455 21.292 64.5229 21.3016L59.6505 23.3702C59.3354 23.512 59.1514 23.8444 59.1984 24.1867Z" fill="#548235"/><path d="M67.2405 33.4549 62.1834 33.4549C61.8079 33.4586 61.4893 33.7314 61.428 34.1018 61.3883 34.4968 61.6763 34.8492 62.0713 34.8888 62.0951 34.8912 62.1191 34.8924 62.1431 34.8924L67.2031 34.8924C67.5787 34.8891 67.8974 34.6161 67.9585 34.2456 67.9982 33.8506 67.7102 33.4982 67.3152 33.4585 67.2905 33.456 67.2654 33.4549 67.2405 33.4549Z" fill="#548235"/><path d="M66.1617 46.0985 62.0102 44.2297C61.6483 44.0666 61.2227 44.2279 61.0596 44.5897 61.0491 44.613 61.0399 44.6367 61.0319 44.661 60.9386 45.0224 61.1171 45.3988 61.456 45.5551L65.5982 47.4202C65.9598 47.584 66.3856 47.4236 66.5494 47.062 66.5704 47.0155 66.5864 46.967 66.5972 46.9171 66.6484 46.5781 66.4714 46.2455 66.1617 46.0985Z" fill="#548235"/><path d="M55.1281 53.5785C54.9185 53.8899 54.9621 54.3069 55.2316 54.5682L58.4143 57.6057C58.7015 57.8796 59.1565 57.8688 59.4304 57.5814 59.4411 57.5702 59.4515 57.5586 59.4615 57.5467 59.6902 57.2341 59.6521 56.8005 59.3723 56.5326L56.1926 53.498C55.9053 53.2241 55.4503 53.235 55.1764 53.5223 55.1594 53.5402 55.1432 53.5589 55.1281 53.5785Z" fill="#548235"/><path d="M45.4969 40.1019 45.9339 40.4362 46.3702 40.1019C46.598 39.928 51.9433 35.7995 51.9412 32.218 51.8877 30.6302 50.7958 29.2669 49.2581 28.8679 47.9734 28.5896 46.6506 29.135 45.9353 30.2378 45.2208 29.1337 43.8968 28.588 42.6118 28.8679 41.0738 29.2666 39.9816 30.63 39.928 32.218 39.928 35.8002 45.2712 39.928 45.4969 40.1019ZM42.9439 30.2666C43.0561 30.2395 43.1712 30.2258 43.2867 30.2256 44.0335 30.2256 44.7364 30.8143 45.2927 31.9197L45.9288 33.1818C45.9288 33.1883 45.9382 33.1883 45.9411 33.1818L46.575 31.9197C47.2168 30.6468 48.0477 30.0581 48.9253 30.2666 49.811 30.5193 50.4432 31.2999 50.5066 32.2187 50.5066 34.3836 47.5281 37.2959 45.9367 38.612 44.3454 37.2974 41.3669 34.3872 41.3669 32.2151 41.4309 31.2988 42.061 30.5202 42.9439 30.2666Z" fill="#548235"/></g></svg>